<svg id="eQhyS4NoKtZ1" xmlns="http://www.w3.org/2000/svg" xmlns:xlink="http://www.w3.org/1999/xlink" viewBox="0 0 671.145 514.984" shape-rendering="geometricPrecision" text-rendering="geometricPrecision"><g transform="matrix(.982166 0 0 0.977907-15.238175-67.536225)"><g transform="translate(18.564501 66.197698)"><path d="M666.581,405.244c0,58.087-148.198,105.176-331.009,105.176s-331.008-47.089-331.008-105.176c0-58.088,148.197-105.177,331.008-105.177s331.009,47.089,331.009,105.177Z" fill="#fff"/><path d="M666.581,405.244c0,58.087-148.198,105.176-331.009,105.176s-331.008-47.089-331.008-105.176c0-58.088,148.197-105.177,331.008-105.177s331.009,47.089,331.009,105.177Z" fill-opacity="0" stroke="#000" stroke-width="9.127" stroke-linecap="round" stroke-linejoin="round"/></g><g transform="translate(0-25.260494)"><g transform="translate(1.22345 96.722829)"><path d="M591.227,354.86c0,40.691-106.75,73.678-238.432,73.678-131.681,0-238.431-32.987-238.431-73.678c0-40.692,106.75-73.679,238.431-73.679c131.682,0,238.432,32.987,238.432,73.679Z" fill="#ffedba"/><g><g><path d="M114.247,353.747l.112,30.618c0,40.692,106.749,73.679,238.431,73.679s238.431-32.987,238.431-73.679v-29.505" fill="#ffedba"/><path d="M114.247,353.747l.112,30.618c0,40.692,106.749,73.679,238.431,73.679s238.431-32.987,238.431-73.679v-29.505" fill-opacity="0" stroke="#520" stroke-width="12.465" stroke-linecap="round" stroke-linejoin="round"/></g><path d="M352.795,281.181c-70.94.01-138.182,9.781-183.455,26.659-17.106,7.882-26.542,20.922-26.557,29.681-.075,40.784,102.955,68.895,211.409,68.895s207.423-30.609,207.423-71.394c.369-8.546-9.477-20.159-23.848-26.595-45.239-17.223-113.185-27.232-184.972-27.246Z" fill="#dca55c"/><path d="M591.227,354.86c0,40.691-106.75,73.678-238.432,73.678-131.681,0-238.431-32.987-238.431-73.678c0-40.692,106.75-73.679,238.431-73.679c131.682,0,238.432,32.987,238.432,73.679Z" fill-opacity="0" stroke="#520" stroke-width="12.465" stroke-linecap="round" stroke-linejoin="round"/></g></g><g transform="translate(-.557363 100.664684)"><path d="M605.383,276.661c0,40.692-106.749,73.679-238.431,73.679s-238.431-32.987-238.431-73.679c0-40.691,106.749-73.678,238.431-73.678s238.431,32.987,238.431,73.678Z" fill="#ffedba"/><g><g><path d="M128.404,275.548l.112,30.619c0,40.691,106.749,73.678,238.431,73.678s238.431-32.987,238.431-73.678v-29.506" fill="#ffedba"/><path d="M128.404,275.548l.112,30.619c0,40.691,106.749,73.678,238.431,73.678s238.431-32.987,238.431-73.678v-29.506" transform="translate(.096956 0)" fill-opacity="0" stroke="#520" stroke-width="12.465" stroke-linecap="round" stroke-linejoin="round"/></g><path d="M366.952,202.982c-70.941.01-138.183,9.782-183.455,26.659-17.106,7.882-26.542,20.923-26.557,29.681-.075,40.785,102.955,68.896,211.409,68.896c108.453,0,207.423-30.61,207.423-71.394.369-8.546-9.478-20.16-23.848-26.595-45.24-17.224-113.185-27.232-184.972-27.247Z" fill="#dca55c"/><path d="M605.383,276.661c0,40.692-106.749,73.679-238.431,73.679s-238.431-32.987-238.431-73.679c0-40.691,106.749-73.678,238.431-73.678s238.431,32.987,238.431,73.678Z" fill-opacity="0" stroke="#520" stroke-width="12.465" stroke-linecap="round" stroke-linejoin="round"/></g></g><g transform="translate(3.666259 97.034433)"><path d="M576.408,199.846c0,40.692-106.75,73.679-238.432,73.679-131.681,0-238.431-32.987-238.431-73.679c0-40.691,106.75-73.678,238.431-73.678c131.682,0,238.432,32.987,238.432,73.678Z" fill="#ffedba"/><g><g><path d="M99.428,198.733l.112,30.619c0,40.691,106.749,73.678,238.431,73.678s238.431-32.987,238.431-73.678v-29.506" fill="#ffedba"/><path d="M99.428,198.733l.112,30.619c0,40.691,106.749,73.678,238.431,73.678s238.431-32.987,238.431-73.678v-29.506" fill-opacity="0" stroke="#520" stroke-width="12.465" stroke-linecap="round" stroke-linejoin="round"/></g><path d="M337.976,126.167c-70.941.01-138.182,9.782-183.455,26.659-17.106,7.882-26.542,20.923-26.557,29.681-.075,40.785,102.955,68.896,211.409,68.896s207.423-30.61,207.423-71.394c.369-8.546-9.478-20.16-23.848-26.595-45.239-17.224-113.185-27.232-184.972-27.247Z" fill="#dca55c"/><path d="M576.408,199.846c0,40.692-106.75,73.679-238.432,73.679-131.681,0-238.431-32.987-238.431-73.679c0-40.691,106.75-73.678,238.431-73.678c131.682,0,238.432,32.987,238.432,73.678Z" fill-opacity="0" stroke="#520" stroke-width="12.465" stroke-linecap="round" stroke-linejoin="round"/></g></g><g transform="translate(-.13655 98.797187)"><path d="M592.587,117.638c0,40.692-106.75,73.679-238.432,73.679s-238.431-32.987-238.431-73.679c0-40.691,106.749-73.678,238.431-73.678s238.432,32.987,238.432,73.678Z" fill="#ffedba"/><g><g><path d="M115.607,116.525l.112,30.619c0,40.691,106.749,73.678,238.431,73.678s238.431-32.987,238.431-73.678v-29.506" fill="#ffedba"/><path d="M115.607,116.525l.112,30.619c0,40.691,106.749,73.678,238.431,73.678s238.431-32.987,238.431-73.678v-29.506" fill-opacity="0" stroke="#520" stroke-width="12.465" stroke-linecap="round" stroke-linejoin="round"/></g><path d="M354.155,43.959c-70.941.01-138.182,9.782-183.455,26.659-17.106,7.882-26.542,20.923-26.557,29.681-.075,40.785,102.955,68.896,211.409,68.896s207.423-30.61,207.423-71.394c.369-8.546-9.478-20.16-23.848-26.595-45.239-17.224-113.185-27.232-184.972-27.247Z" fill="#dca55c"/><path d="M592.587,117.638c0,40.692-106.75,73.679-238.432,73.679s-238.431-32.987-238.431-73.679c0-40.691,106.749-73.678,238.431-73.678s238.432,32.987,238.432,73.678Z" transform="translate(-.401275 0)" fill-opacity="0" stroke="#520" stroke-width="12.465" stroke-linecap="round" stroke-linejoin="round"/></g></g></g><g transform="translate(.000001 0)"><path d="M-9.054029,55.688957c27.485019-1.761999,97.65955,5.873309,121.63585,9.984618c102.441647,11.939455-6.479825,34.273253,41.58907,44.405652c40.08263,8.448981,66.133067,29.406542,67.09322,38.728379c4.480718,24.751094.320053,54.645281-5.759646,60.174582-23.417019,2.238207-5.117832-39.246234-50.94026-28.860057s-86.758323-2.418897-115.82693,3.455364c-21.12426,4.268847-37.225357,17.293172-42.548797,29.055662-.521622,1.152558-10.91522,33.154914,7.36245,32.938948c56.891618-.672221,69.449268,16.718072,50.097715,23.445812-21.882328,7.607586-41.819228,1.829946-55.452225,22.937605c4.540031,18.291604-4.778113,36.576655,11.378328,36.300064c55.970171-.958182,68.648861,20.19978,52.797736,20.088451-30.181704-.21198-69.29425,1.933806-62.791367,24.859134c2.719478,16.040873,3.456078,34.594521,4.639122,35.047006c31.531514,12.060023,94.136498-19.485069,98.914474,4.165919c7.642405,26.697863-91.132159,28.869896-92.237135,30.243909-12.627509,9.597506,4.219709,25.83936,6.004882,26.526467c30.572051,29.681488,130.440777-37.869482,136.555186,15.352495-11.209755,17.399492-149.151953,22.242831-169.16539,22.516988-5.00201-.389069-73.329839,15.250393-77.449209-19.446491-1.343937-11.319796,86.199325-3.97272,87.639889-18.422992.758907-7.61259,8.241643-13.897955.068644-23.369341-12.493204-14.477911-56.086041-6.234807-47.724949-22.775231c11.262371-22.279912,37.089275-11.415321,42.668716-14.791724c6.104767-3.694305,5.531651-12.880647-6.023818-35.627843-7.95031-15.650361-49.256044-13.018684-51.802137-24.278291c5.088189-23.635237,43.388907-6.926745,49.124882-18.744009c5.492241-11.315123,7.33855-22.597624,2.677254-36.972288c1.257385-13.891371-36.389136-16.015595-64.36301-22.346977-27.490729-6.22203-15.285261-25.380886,57.669879-23.364215c18.006142.497737-2.801422-33.323385-2.677254-33.611173c7.602236-17.619911-34.899107-18.182755-39.134332-25.413941-9.5364-16.282368-29.670881-11.036278-59.07532-15.831819s-76.365009-.20809-84.801998,14.705572c2.687293,51.505394-12.319339,35.871231-13.548412,34.636813-4.478811-6.297596-20.490571-53.529621-1.679556-65.675005c43.444503-21.141956,90.615793-49.336985,62.185526-65.444304-44.487178-31.552792,115.413903-32.83174,142.898922-34.593739Z" transform="translate(352.863732 49.872122)" fill="#da7a2f" stroke="#7c2a1b" stroke-width="6" stroke-linecap="round" stroke-linejoin="round"/><path d="M-10.800157,116.400453c0,0,4.356974-1.921135,4.356974-1.921135s.053132-.106734.053132-.106734-.212533-.053364-.212533-.053364-.000001,0-.000001,0s17.055959-.640379,17.055959-.640379.212532,0,.212532,0s.159406.053365.159406.053365-.106259-.053361-.106259-.053361s22.852744,2.612148,22.852744,2.612148s5.892681,3.164902-.809887,10.04278c-3.536258,3.62875-13.142614,6.145989-31.811217,7.30577-39.192912-.186564-14.885741-13.450196-14.885741-13.450196s1.540881-1.814396,1.540881-1.814396s1.59401-1.974498,1.59401-1.974498Z" transform="translate(351.63872 54.795833)" opacity="0" fill="#da7a2f" stroke="#7c2a1b" stroke-width="6" stroke-linecap="round" stroke-linejoin="round"/></g><g transform="translate(-553.967224 59.36211)"><path d="M290.341593,39.861589c0,0-16.924127-15.611243-49.703284-10.546366-72.804816,11.249448-25.90172,7.030908-23.101531,28.123618-12.177908,51.172999-99.02104,54.727216-69.304569,69.60594C155.704056,130.785856,235.737972,91.890238,265.484,114.898c15.756991,18.474581,48.911136-1.643881,63.360136,7.225119c21.001386,3.515461-5.600363,23.905071,13.300881,47.810142.000004.703069-2.100127-10.546348,28.001853-34.451425c31.502082-26.717416,40.28694-25.122014,65.104314-12.655614c9.32,5.402,22.401481,7.734,44.802956-.000013c28.701887-16.171081,60.904028,1.406184,73.504845-3.515437c31.502087-9.140157-61.604049-33.748331-58.103823-35.154507-53.17584-11.537464,11.200736-47.810131-19.601301-46.403956-17.075-8.539-59.503934,23.201987-85.405649-18.280347-16.101077-5.624714-28.7019-.703087-42.00278,4.218547-35.702357,33.74833-58.103839,16.17108-58.103839,16.17108Z" transform="translate(561.562267 32.194041)" opacity="0.65" fill="#fef6a8" stroke="#f7c84d" stroke-width="6"/><g transform="matrix(1 0 0 0.717413 559.36844 55.353996)"><path d="M292.414782,78.146817c0,0-2.745037,3.405641-5.978166,12.04664c11.541,4.726,55.058898,44.86017,67.013898,48.55417c17.531-5.962963,54.191976-28.607842,66.719976-37.032842.164345-4.11396-3.527049-13.167229-5.290571-18.104947L409.65208,69.448836L355.89581,53.943729L292.414782,78.146817Z" transform="matrix(-1 0 0 1.000001 699.109598-19.223043)" fill="#fef6a8"/><path d="M277.469504,83.314798l10.714703-32.651279l56.110109-16.699113l62.4005,23.824932l7.447768,12.358212-67.895659,49.377176Z" fill="none" fill-opacity="0" stroke="#f9c600" stroke-width="6" stroke-linecap="round" stroke-linejoin="round"/><path d="M288.324922,51.440201l59.751243,34.333961L385.894648,69.51271" fill-opacity="0" stroke="#f9c600" stroke-width="6" stroke-linecap="round"/></g></g></g></svg>
