<svg id="erw24dShmaX1" xmlns="http://www.w3.org/2000/svg" xmlns:xlink="http://www.w3.org/1999/xlink" viewBox="0 0 671.145 514.984" shape-rendering="geometricPrecision" text-rendering="geometricPrecision" style="cursor:pointer"><g transform="matrix(.808003 0 0 0.804505 49.428753 45.656638)"><g transform="translate(18.564501 66.197698)"><path d="M666.581,405.244c0,58.087-148.198,105.176-331.009,105.176s-331.008-47.089-331.008-105.176c0-58.088,148.197-105.177,331.008-105.177s331.009,47.089,331.009,105.177Z" fill="#fff"/><path d="M666.581,405.244c0,58.087-148.198,105.176-331.009,105.176s-331.008-47.089-331.008-105.176c0-58.088,148.197-105.177,331.008-105.177s331.009,47.089,331.009,105.177Z" fill-opacity="0" stroke="#000" stroke-width="9.127" stroke-linecap="round" stroke-linejoin="round"/></g><g transform="translate(0-25.260494)"><g transform="translate(1.22345 96.722829)"><path d="M591.227,354.86c0,40.691-106.75,73.678-238.432,73.678-131.681,0-238.431-32.987-238.431-73.678c0-40.692,106.75-73.679,238.431-73.679c131.682,0,238.432,32.987,238.432,73.679Z" fill="#ffedba"/><g><g><path d="M114.247,353.747l.112,30.618c0,40.692,106.749,73.679,238.431,73.679s238.431-32.987,238.431-73.679v-29.505" fill="#ffedba"/><path d="M114.247,353.747l.112,30.618c0,40.692,106.749,73.679,238.431,73.679s238.431-32.987,238.431-73.679v-29.505" fill-opacity="0" stroke="#520" stroke-width="12.465" stroke-linecap="round" stroke-linejoin="round"/></g><path d="M352.795,281.181c-70.94.01-138.182,9.781-183.455,26.659-17.106,7.882-26.542,20.922-26.557,29.681-.075,40.784,102.955,68.895,211.409,68.895s207.423-30.609,207.423-71.394c.369-8.546-9.477-20.159-23.848-26.595-45.239-17.223-113.185-27.232-184.972-27.246Z" fill="#dca55c"/><path d="M591.227,354.86c0,40.691-106.75,73.678-238.432,73.678-131.681,0-238.431-32.987-238.431-73.678c0-40.692,106.75-73.679,238.431-73.679c131.682,0,238.432,32.987,238.432,73.679Z" fill-opacity="0" stroke="#520" stroke-width="12.465" stroke-linecap="round" stroke-linejoin="round"/></g></g><g id="erw24dShmaX15" transform="translate(-.557363 55.002473)"><path d="M605.383,276.661c0,40.692-106.749,73.679-238.431,73.679s-238.431-32.987-238.431-73.679c0-40.691,106.749-73.678,238.431-73.678s238.431,32.987,238.431,73.678Z" fill="#ffedba"/><g><g><path d="M128.404,275.548l.112,30.619c0,40.691,106.749,73.678,238.431,73.678s238.431-32.987,238.431-73.678v-29.506" fill="#ffedba"/><path d="M128.404,275.548l.112,30.619c0,40.691,106.749,73.678,238.431,73.678s238.431-32.987,238.431-73.678v-29.506" transform="translate(.096956 0)" fill-opacity="0" stroke="#520" stroke-width="12.465" stroke-linecap="round" stroke-linejoin="round"/></g><path d="M366.952,202.982c-70.941.01-138.183,9.782-183.455,26.659-17.106,7.882-26.542,20.923-26.557,29.681-.075,40.785,102.955,68.896,211.409,68.896c108.453,0,207.423-30.61,207.423-71.394.369-8.546-9.478-20.16-23.848-26.595-45.24-17.224-113.185-27.232-184.972-27.247Z" fill="#dca55c"/><path d="M605.383,276.661c0,40.692-106.749,73.679-238.431,73.679s-238.431-32.987-238.431-73.679c0-40.691,106.749-73.678,238.431-73.678s238.431,32.987,238.431,73.678Z" fill-opacity="0" stroke="#520" stroke-width="12.465" stroke-linecap="round" stroke-linejoin="round"/></g></g><g id="erw24dShmaX23" transform="translate(3.66626-15.540532)"><path d="M576.408,199.846c0,40.692-106.75,73.679-238.432,73.679-131.681,0-238.431-32.987-238.431-73.679c0-40.691,106.75-73.678,238.431-73.678c131.682,0,238.432,32.987,238.432,73.678Z" fill="#ffedba"/><g><g><path d="M99.428,198.733l.112,30.619c0,40.691,106.749,73.678,238.431,73.678s238.431-32.987,238.431-73.678v-29.506" fill="#ffedba"/><path d="M99.428,198.733l.112,30.619c0,40.691,106.749,73.678,238.431,73.678s238.431-32.987,238.431-73.678v-29.506" fill-opacity="0" stroke="#520" stroke-width="12.465" stroke-linecap="round" stroke-linejoin="round"/></g><path d="M337.976,126.167c-70.941.01-138.182,9.782-183.455,26.659-17.106,7.882-26.542,20.923-26.557,29.681-.075,40.785,102.955,68.896,211.409,68.896s207.423-30.61,207.423-71.394c.369-8.546-9.478-20.16-23.848-26.595-45.239-17.224-113.185-27.232-184.972-27.247Z" fill="#dca55c"/><path d="M576.408,199.846c0,40.692-106.75,73.679-238.432,73.679-131.681,0-238.431-32.987-238.431-73.679c0-40.691,106.75-73.678,238.431-73.678c131.682,0,238.432,32.987,238.432,73.678Z" fill-opacity="0" stroke="#520" stroke-width="12.465" stroke-linecap="round" stroke-linejoin="round"/></g></g><g id="erw24dShmaX31" transform="translate(-.13655-64.952587)"><path d="M592.587,117.638c0,40.692-106.75,73.679-238.432,73.679s-238.431-32.987-238.431-73.679c0-40.691,106.749-73.678,238.431-73.678s238.432,32.987,238.432,73.678Z" fill="#ffedba"/><g><g><path d="M115.607,116.525l.112,30.619c0,40.691,106.749,73.678,238.431,73.678s238.431-32.987,238.431-73.678v-29.506" fill="#ffedba"/><path d="M115.607,116.525l.112,30.619c0,40.691,106.749,73.678,238.431,73.678s238.431-32.987,238.431-73.678v-29.506" fill-opacity="0" stroke="#520" stroke-width="12.465" stroke-linecap="round" stroke-linejoin="round"/></g><path d="M354.155,43.959c-70.941.01-138.182,9.782-183.455,26.659-17.106,7.882-26.542,20.923-26.557,29.681-.075,40.785,102.955,68.896,211.409,68.896s207.423-30.61,207.423-71.394c.369-8.546-9.478-20.16-23.848-26.595-45.239-17.224-113.185-27.232-184.972-27.247Z" fill="#dca55c"/><path d="M592.587,117.638c0,40.692-106.75,73.679-238.432,73.679s-238.431-32.987-238.431-73.679c0-40.691,106.749-73.678,238.431-73.678s238.432,32.987,238.432,73.678Z" transform="translate(-.401275 0)" fill-opacity="0" stroke="#520" stroke-width="12.465" stroke-linecap="round" stroke-linejoin="round"/></g></g></g><g transform="translate(.000001 0)"><path id="erw24dShmaX40" d="M5.291179,99.804274c-.245624.476759,29.581679,17.734055,20.867695,24.87374c1.175689-1.216831.532818-2.880357.591472-4.653543-.020734.626796.049524,1.093875-.166919,1.676444-1.900177,5.114418-9.319621,8.520336-18.669444,10.042948c8.518389-1.387117,9.807555-3.192628,9.807553-1.116611-.000003,3.126921.00001,6.014288,0,2.595026-.000003-1.038005-.963398-2.907869-9.890001-1.465038c1.607076-.259766,3.205943-.575008,4.761818-.94489-4.435304,1.054415-9.21997,1.664809-13.548256,1.811779.27486-.009333.55156-.020535.829895-.033601c5.317924-.249636,11.232378-1.179673,16.304175-2.755461-5.555013,1.72592-12.120901,2.677183-17.806681,2.808256.236168-.005444.473854-.012303.712923-.020574c5.604868-.193918,11.96986-1.163814,17.348713-2.86768-4.576368,1.449662-9.866575,2.368022-14.795137,2.729209-.229943.016852-.459098.03249-.687357.046913c6.568178-.415029,13.878595-1.836407,19.328992-4.201684-5.096083,2.211518-11.818216,3.597867-18.039362,4.108003-7.718055.632881-14.665006-.082846-16.779263-2.244576c1.411013,1.44273,4.976088,2.240675,9.375861,2.446882-2.044961-.095843-3.909602-.319517-5.461453-.676349c2.444906.562186,5.666267.793947,9.146758.717063-.105596.002333-.210955.004382-.31606.006145-2.232436.037463-4.350746-.053519-6.21649-.278774c1.548753.186983,3.27154.281443,5.089177.28671-.498873-.001445-.990601-.00961-1.473547-.024562-2.530325-.07834-4.819573-.343009-6.63228-.803911c1.509789.383882,3.350112.631557,5.38418.747343-.354271-.020167-.702665-.044334-1.044458-.072524-2.170624-.179031-4.075068-.52034-5.528221-1.029767.21054.073808.430554.144087.659478.210855-1.246496-.363556-2.22884-.831279-2.856516-1.406806-.391473-.358946-.644883-.759825-.740129-1.203115.022165.10316.052895.204023.091938.302595-.320518-.809224-.080842-1.772838.859147-2.894205-.660166.78755-1.119632,1.162576-1.142767,1.053718.11008.517966,10.098818-9.919352,4.582497-23.624332c0,0,16.052069-4.145626,16.052069-4.145626Z" transform="translate(352.863732 49.872122)" opacity="0" fill="#da7a2f" stroke="#7c2a1b" stroke-width="6" stroke-linecap="round" stroke-linejoin="round"/><path id="erw24dShmaX41" d="M-14.126969,21.866735c.523153-9.678339,7.388149-24.703655-1.516927-34.174324-13.084247-13.915274,13.837983-51.805414-6.737234-73.004123-11.481949-11.829887,7.713068-12.406739,11.211861-23.932176c4.259643-14.031765.345123-17.345468,5.637654-26.892807s11.64609-9.060545,12.152619,2.587786c.324044,7.451827.384347,35.355691-2.255105,40.341323-6.765315,12.778929-14.413493,43.147077.579181,63.293483s5.589386,41.139287-2.507389,57.698726c-18.731853,38.310189,6.858504,66.828154.558893,51.866579c6.99888,16.622341,5.158141,37.445325.758932,45.214273C2.635053,126.844197,1.348621,127.976102,0,127.976102c-7.611554,0-20.504972-9.91225-9.92145-22.847666c2.543161-3.108307,2.243369-15.326881,1.019255-29.531291-1.884841-21.87138-5.961121-48.450897-5.224774-53.73041Z" transform="translate(345.347989-197.927634)" fill="#da7a2f" stroke="#7c2a1b" stroke-width="6" stroke-linecap="round" stroke-linejoin="round"/></g><g transform="translate(-553.967224 59.36211)"><path id="erw24dShmaX43" d="M327.278451,42.483717c-7.697516-1.453185-12.173002,2.037655-20.288356,6.112972s-7.254476,7.459097-10.820448,13.584373-2.028836,8.829836,2.705112,12.225934s4.057662,4.075314,14.20184,8.150628s6.975917-5.26295,13.52557-1.358438s1.352558,5.433749,10.820455,7.471406-.93917-6.737329,7.439062-7.471401s5.642023,4.559841,13.525571,5.433745.063208-4.269988,6.762783-6.112969s10.416871.603887,18.259511-2.037657-7.655647-1.118238-8.791616-8.829843s20.288348-1.358436,10.820451-3.396088-4.333544-6.194656-9.467895-12.225939-24.346021-8.150625-30.432528-6.792189-10.561996-3.301349-18.259512-4.754534Z" transform="translate(561.562267 32.194041)" opacity="0" fill="#fef6a8" stroke="#f7c84d" stroke-width="6"/><g id="erw24dShmaX44" transform="matrix(1 0 0 0.717413 559.170236-271.734163)"><path id="erw24dShmaX45" d="M290.951338,47.426446c1.76,25.390464.120723,25.442018,1.880724,46.627517c11.541,4.726,46.147499,23.113,58.102499,26.807c17.531-5.962963,45.522438-18.382,58.050438-26.807c1.812062-15.266719,1.812061-31.995.000001-46.575963l-.220664-.647554L356.976337,24.82441L290.951338,47.426446Z" transform="matrix(-1 0 0 1.000001 699.109598-19.223043)" fill="#fef6a8"/><path id="erw24dShmaX46" d="M286.854,74.989l1.912-48.477L340.554,5.653l66.025,21.618-1.76,47.56-58.983,26.807Z" fill="none" fill-opacity="0" stroke="#f9c600" stroke-width="6" stroke-linecap="round" stroke-linejoin="round"/><path id="erw24dShmaX47" d="M288.766,26.512l55.159,25.636l25.68-9.312" fill-opacity="0" stroke="#f9c600" stroke-width="6" stroke-linecap="round"/></g></g></g>
<script><![CDATA[
(function(s,i,u,o,c,w,d,t,n,x,e,p,a,b){(a=Array.from(d.querySelectorAll('svg#' + i.root)).filter(n=> !n.svgatorPlayer)[0]||{}).svgatorPlayer={ready:(function(a){b=[];return function(c){return c?(b.push(c),a.svgatorPlayer):b}})(a)};w[o]=w[o]||{};w[o][s]=w[o][s]||[];w[o][s].push(i);e=d.createElementNS(n,t);e.async=true;e.setAttributeNS(x,'href',[u,s,'.','j','s','?','v','=',c].join(''));e.setAttributeNS(null,'src',[u,s,'.','j','s','?','v','=',c].join(''));p=d.getElementsByTagName(t)[0];p.parentNode.insertBefore(e,p);})('91c80d77',{"root":"erw24dShmaX1","version":"2022-05-04","animations":[{"elements":{"erw24dShmaX15":{"transform":{"data":{"t":{"x":-360.207653,"y":-286.333492}},"keys":{"o":[{"t":0,"v":{"x":359.65029,"y":341.335965,"type":"corner"}},{"t":500,"v":{"x":359.65029,"y":386.998176,"type":"corner"}}]}}},"erw24dShmaX23":{"transform":{"data":{"t":{"x":-352.189261,"y":-198.733}},"keys":{"o":[{"t":0,"v":{"x":355.855521,"y":183.192468,"type":"corner"}},{"t":500,"v":{"x":355.85552,"y":295.767433,"type":"corner"}}]}}},"erw24dShmaX31":{"transform":{"data":{"t":{"x":-353.562955,"y":-117.6385}},"keys":{"o":[{"t":0,"v":{"x":353.426405,"y":52.685913,"type":"corner"}},{"t":500,"v":{"x":353.426405,"y":216.435687,"type":"corner"}}]}}},"erw24dShmaX40":{"d":[{"t":800,"v":["M",5.291179,99.804274,"C",5.045555,100.281033,34.872858,117.538329,26.158874,124.678014,"C",27.334563,123.461183,26.691692,121.797657,26.750346,120.024471,"C",26.729612,120.651267,26.79987,121.118346,26.583427,121.700915,"C",24.68325,126.815333,17.263806,130.221251,7.913983,131.743863,"C",16.432372,130.356746,17.721538,128.551235,17.721536,130.627252,"C",17.721533,133.754173,17.721546,136.64154,17.721536,133.222278,"C",17.721533,132.184273,16.758138,130.314409,7.831535,131.75724,"C",9.438611,131.497474,11.037478,131.182232,12.593353,130.81235,"C",8.158049,131.866765,3.373383,132.477159,-0.954903,132.624129,"C",-0.680043,132.614796,-0.403343,132.603594,-0.125008,132.590528,"C",5.192916,132.340892,11.10737,131.410855,16.179167,129.835067,"C",10.624154,131.560987,4.058266,132.51225,-1.627514,132.643323,"C",-1.391346,132.637879,-1.15366,132.63102,-0.914591,132.622749,"C",4.690277,132.428831,11.055269,131.458935,16.434122,129.755069,"C",11.857754,131.204731,6.567547,132.123091,1.638985,132.484278,"C",1.409042,132.50113,1.179887,132.516768,0.951628,132.531191,"C",7.519806,132.116162,14.830223,130.694784,20.28062,128.329507,"C",15.184537,130.541025,8.462404,131.927374,2.241258,132.43751,"C",-5.476797,133.070391,-12.423748,132.354664,-14.538005,130.192934,"C",-13.126992,131.635664,-9.561917,132.433609,-5.162144,132.639816,"C",-7.207105,132.543973,-9.071746,132.320299,-10.623597,131.963467,"C",-8.178691,132.525653,-4.95733,132.757414,-1.476839,132.68053,"C",-1.582435,132.682863,-1.687794,132.684912,-1.792899,132.686675,"C",-4.025335,132.724138,-6.143645,132.633156,-8.009389,132.407901,"C",-6.460636,132.594884,-4.737849,132.689344,-2.920212,132.694611,"C",-3.419085,132.693166,-3.910813,132.685001,-4.393759,132.670049,"C",-6.924084,132.591709,-9.213332,132.32704,-11.026039,131.866138,"C",-9.51625,132.25002,-7.675927,132.497695,-5.641859,132.613481,"C",-5.99613,132.593314,-6.344524,132.569147,-6.686317,132.540957,"C",-8.856941,132.361926,-10.761385,132.020617,-12.214538,131.51119,"C",-12.003998,131.584998,-11.783984,131.655277,-11.55506,131.722045,"C",-12.801556,131.358489,-13.7839,130.890766,-14.411576,130.315239,"C",-14.803049,129.956293,-15.056459,129.555414,-15.151705,129.112124,"C",-15.12954,129.215284,-15.09881,129.316147,-15.059767,129.414719,"C",-15.380285,128.605495,-15.140609,127.641881,-14.20062,126.520514,"C",-14.860786,127.308064,-15.320252,127.68309,-15.343387,127.574232,"C",-15.233307,128.092198,-5.244569,117.65488,-10.76089,103.9499,"C",-10.76089,103.9499,5.291179,99.804274,5.291179,99.804274,"Z"]},{"t":1100,"v":["M",-0.856767,80.89771,"C",10.78217,80.415001,66.357542,86.54182,71.65368,92.383629,"C",116.229065,96.805207,60.724679,112.433016,81.359151,115.762224,"C",98.525573,119.741385,104.039268,111.214703,118.357111,120.459054,"C",127.220535,129.703397,151.765399,141.002048,132.334049,157.436435,"C",116.652602,171.474139,100.292293,146.201829,80.654108,151.839343,"C",61.015923,158.077374,43.471976,154.239409,31.013996,154.803085,"C",27.507006,155.46773,25.088495,163.297516,17.706105,169.163058,"C",4.290669,178.056231,2.642598,192.638766,-2.55938,198.996436,"C",-3.865451,200.592669,-5.395551,201.67043,-7.392166,202.0095,"C",-7.402046,202.011177,-7.411936,202.012837,-7.421839,202.014479,"C",-6.322998,201.832319,-5.365169,201.427123,-4.508208,200.835346,"C",-5.531809,201.542197,-6.699323,201.982849,-8.079158,202.095175,"C",-8.066249,202.094124,-8.053358,202.093045,-8.040485,202.091936,"C",-6.968001,201.999594,-6.024139,201.708109,-5.176496,201.246909,"C",-5.916128,201.649341,-6.72902,201.922554,-7.6367,202.046997,"C",-7.68932,202.054211,-7.742258,202.060926,-7.795518,202.067136,"C",-6.607513,201.928609,-5.580082,201.539438,-4.666684,200.941889,"C",-5.533524,201.50898,-6.503069,201.888395,-7.615101,202.044005,"C",-8.095669,202.111253,-8.602846,202.136703,-9.139845,202.117442,"C",-9.917077,202.228957,-10.650904,202.269331,-11.342572,202.245332,"C",-12.166242,202.216753,-12.930124,202.096886,-13.636324,201.897164,"C",-12.609256,202.187634,-11.460176,202.309194,-10.182616,202.22668,"C",-10.204101,202.228068,-10.225549,202.229398,-10.246961,202.23067,"C",-11.015253,202.276325,-11.736803,202.247889,-12.413034,202.15309,"C",-11.793894,202.239886,-11.136763,202.27105,-10.44055,202.240653,"C",-10.598066,202.24753,-10.753581,202.251256,-10.907108,202.251899,"C",-12.203681,202.257334,-13.358476,202.042919,-14.379104,201.65002,"C",-13.474302,201.998331,-12.464057,202.20637,-11.343066,202.245316,"C",-11.537857,202.238549,-11.729304,202.226675,-11.917436,202.209847,"C",-14.125799,202.012314,-15.877228,201.132094,-17.21673,199.813775,"C",-21.577898,195.521573,-21.572495,186.585379,-18.753757,181.446597,"C",-15.531739,155.039743,-29.647071,158.418706,-31.82084,154.990753,"C",-36.131567,147.807484,-44.905436,149.826734,-57.561765,147.518194,"C",-70.151001,145.52191,-90.2594,147.545597,-93.852942,153.993493,"C",-101.974891,167.20027,-116.971181,161.809367,-116.96079,160.639549,"C",-126.567137,146.74627,-108.589926,144.907073,-100.541283,139.639704,"C",-81.859307,130.874846,-63.002198,117.377596,-64.706701,98.546524,"C",-68.45661,76.976384,-12.636061,81.652852,-0.856767,80.89771,"Z"]},{"t":1300,"v":["M",-4.955398,68.293334,"C",14.60658,67.17098,70.746699,75.525649,85.382919,80.502208,"C",158.891435,88.682724,85.872249,110.513536,120.223932,117.24434,"C",148.848458,123.458411,179.218372,125.020089,186.85737,134.303183,"C",193.529441,151.300902,226.614684,158.313843,213.859159,169.295687,"C",194.309926,177.433642,155.339463,157.968891,122.609156,165.980737,"C",89.87885,174.292841,60.638929,165.971322,39.875636,169.19029,"C",27.560011,171.657036,17.9888,184.076259,11.635885,192.890275,"C",1.94736,206.090191,12.437307,219.804183,11.631086,228.756344,"C",11.239958,233.099381,8.190172,236.321678,-1.112102,237.82082,"C",-1.14038,237.825377,-1.168716,237.829918,-1.197109,237.834444,"C",3.626871,237.065598,6.780151,235.83663,8.757826,234.230531,"C",6.222865,236.289211,1.756406,237.72827,-5.684197,238.372937,"C",-5.608439,238.366373,-5.53299,238.359727,-5.457847,238.352999,"C",0.644221,237.806614,4.720318,236.718372,7.359796,235.187061,"C",5.182203,236.450408,2.026788,237.412183,-2.43739,238.016915,"C",-2.807677,238.067075,-3.186969,238.114779,-3.575453,238.159994,"C",2.105395,237.498802,5.820403,236.305556,8.160124,234.679247,"C",6.003929,236.17799,2.679737,237.308944,-2.274654,237.994632,"C",-5.580033,238.452097,-9.611021,238.711372,-14.504871,238.74945,"C",-14.807154,238.755029,-15.103331,238.75469,-15.393461,238.748557,"C",-17.032403,238.713911,-18.478395,238.49437,-19.742276,238.112402,"C",-17.824905,238.691867,-15.488418,238.897515,-12.694969,238.650904,"C",-12.732586,238.654225,-12.770121,238.657463,-12.807573,238.660621,"C",-14.58087,238.810106,-16.168596,238.776154,-17.580562,238.5791,"C",-16.217402,238.769344,-14.690421,238.807565,-12.990791,238.675467,"C",-13.323079,238.701293,-13.648767,238.720608,-13.967923,238.733551,"C",-16.998616,238.856454,-19.440197,238.404651,-21.349154,237.495226,"C",-19.585892,238.335243,-17.368206,238.784824,-14.65158,238.751702,"C",-15.16315,238.757939,-15.657026,238.74706,-16.133506,238.719679,"C",-23.259677,238.310177,-26.494852,234.209793,-26.833461,228.479667,"C",-27.073088,224.424571,-25.862083,219.553283,-23.552888,214.596299,"C",-18.140761,192.582916,-40.222518,176.770666,-43.427015,171.441096,"C",-50.350579,159.708278,-64.804754,163.340948,-85.835138,159.788907,"C",-106.831975,156.392995,-145.08521,165.176005,-151.100475,175.856785,"C",-155.020091,187.229353,-188.380737,176.621495,-188.990078,175.419377,"C",-196.032657,165.32394,-170.769709,156.389729,-157.33988,147.683352,"C",-126.27664,132.729945,-95.094896,107.594342,-110.162281,90.125146,"C",-134.280825,63.56368,-24.587555,69.551904,-4.955398,68.293334,"Z"]},{"t":1400,"v":["M",-9.054029,55.688957,"C",18.43099,53.926958,88.605521,61.562266,112.581821,65.673575,"C",215.023468,77.61303,106.101996,99.946828,154.170891,110.079227,"C",194.253521,118.528208,220.303958,139.485769,221.264111,148.807606,"C",225.744829,173.5587,221.584164,203.452887,215.504465,208.982188,"C",192.087446,211.220395,210.386633,169.735954,164.564205,180.122131,"C",118.741776,190.508308,77.805882,177.703234,48.737275,183.577495,"C",27.613015,187.846342,11.511918,200.870667,6.188478,212.633157,"C",5.666856,213.785715,-4.726742,245.788071,13.550928,245.572105,"C",70.442546,244.899884,83.000196,262.290177,63.648643,269.017917,"C",41.766315,276.625503,21.829415,270.847863,8.196418,291.955522,"C",12.736449,310.247126,19.574746,328.255586,19.574746,328.255586,"C",19.574746,328.255586,19.799308,328.261645,19.799308,328.261645,"C",19.799308,328.261645,20.09989,327.355956,20.09989,327.355956,"C",20.09989,327.355956,24.228021,336.773883,17.953886,338.232065,"C",11.679751,339.690247,-0.439106,334.546571,-4.964857,334.43038,"C",-9.490608,334.314188,-8.331441,327.909488,-8.331441,327.909488,"C",-8.331441,327.909488,-8.33144,327.859768,-8.33144,327.859768,"C",-8.33144,327.859768,-8.356194,327.884628,-8.356194,327.884628,"C",-8.356194,327.884628,-8.306689,327.834908,-8.306689,327.834908,"C",-8.306689,327.834908,-8.306686,327.934348,-8.306686,327.934348,"C",-8.306686,327.934348,-8.356194,327.934348,-8.356194,327.934348,"C",-8.356194,327.934348,-8.356194,327.984067,-8.356194,327.984067,"C",-8.356194,327.984067,-8.456015,327.959747,-8.456015,327.959747,"C",-8.456015,327.959747,-8.380948,327.984067,-8.380948,327.984067,"C",-8.380948,327.984067,-8.356194,327.884628,-8.356194,327.884628,"C",-8.356194,327.884628,-8.306691,327.884628,-8.306691,327.884628,"C",-8.306691,327.884628,-8.356195,327.810048,-8.356195,327.810048,"C",-8.356195,327.810048,-1.867178,307.002409,-6.528474,292.627745,"C",-5.271089,278.736374,-42.91761,276.61215,-70.891484,270.280768,"C",-98.382213,264.058738,-86.176745,244.899882,-13.221605,246.916553,"C",4.784537,247.41429,-16.023027,213.593168,-15.898859,213.30538,"C",-8.296623,195.685469,-50.797966,195.122625,-55.033191,187.891439,"C",-64.569591,171.609071,-84.704072,176.855161,-114.108511,172.05962,"C",-143.51295,167.264079,-190.47352,171.85153,-198.910509,186.765192,"C",-196.223216,238.270586,-211.229848,222.636423,-212.458921,221.402005,"C",-216.937732,215.104409,-232.949492,167.872384,-214.138477,155.727,"C",-170.693974,134.585044,-123.522684,106.390015,-151.952951,90.282696,"C",-196.440129,58.729904,-36.539048,57.450956,-9.054029,55.688957,"Z"]},{"t":1600,"v":["M",-9.054029,55.688957,"C",18.43099,53.926958,88.605521,61.562266,112.581821,65.673575,"C",215.023468,77.61303,106.101996,99.946828,154.170891,110.079227,"C",194.253521,118.528208,220.303958,139.485769,221.264111,148.807606,"C",225.744829,173.5587,221.584164,203.452887,215.504465,208.982188,"C",192.087446,211.220395,210.386633,169.735954,164.564205,180.122131,"C",118.741776,190.508308,77.805882,177.703234,48.737275,183.577495,"C",27.613015,187.846342,11.511918,200.870667,6.188478,212.633157,"C",5.666856,213.785715,-4.726742,245.788071,13.550928,245.572105,"C",70.442546,244.899884,83.000196,262.290177,63.648643,269.017917,"C",41.766315,276.625503,21.829415,270.847863,8.196418,291.955522,"C",12.736449,310.247126,3.418305,328.532177,19.574746,328.255586,"C",75.544917,327.297404,88.223607,348.455366,72.372482,348.344037,"C",42.190778,348.132057,3.078232,350.277843,9.581115,373.203171,"C",12.300593,389.244044,14.220237,408.250177,14.220237,408.250177,"C",14.220237,408.250177,14.115141,408.534397,14.115141,408.534397,"C",14.115141,408.534397,7.243984,415.673393,7.243984,415.673393,"C",7.243984,415.673393,1.083637,414.483563,1.083637,414.483563,"C",1.083637,414.483563,-0.811852,408.296425,-0.811852,408.296425,"C",-0.811852,408.296425,-3.899406,409.520092,-0.574917,408.296431,"C",-0.183967,402.675295,-0.574915,407.820492,-0.574915,407.820492,"C",-0.574915,407.820492,0.135891,407.820493,0.135891,407.820493,"C",0.135891,407.820493,-0.101046,407.344562,-0.101046,407.344562,"C",-0.101046,407.344562,-0.574919,408.058458,-0.574919,408.058458,"C",-0.574919,408.058458,-0.504655,408.250176,-0.504655,408.250176,"C",-0.504655,408.250176,5.026996,395.369529,-6.528473,372.622333,"C",-14.478783,356.971972,-55.784517,359.603649,-58.33061,348.344042,"C",-53.242421,324.708805,-14.941703,341.417297,-9.205728,329.600033,"C",-3.713487,318.28491,-1.867178,307.002409,-6.528474,292.627745,"C",-5.271089,278.736374,-42.91761,276.61215,-70.891484,270.280768,"C",-98.382213,264.058738,-86.176745,244.899882,-13.221605,246.916553,"C",4.784537,247.41429,-16.023027,213.593168,-15.898859,213.30538,"C",-8.296623,195.685469,-50.797966,195.122625,-55.033191,187.891439,"C",-64.569591,171.609071,-84.704072,176.855161,-114.108511,172.05962,"C",-143.51295,167.264079,-190.47352,171.85153,-198.910509,186.765192,"C",-196.223216,238.270586,-211.229848,222.636423,-212.458921,221.402005,"C",-216.937732,215.104409,-232.949492,167.872384,-214.138477,155.727,"C",-170.693974,134.585044,-123.522684,106.390015,-151.952951,90.282696,"C",-196.440129,58.729904,-36.539048,57.450956,-9.054029,55.688957,"Z"]},{"t":1800,"v":["M",-9.054029,55.688957,"C",18.43099,53.926958,88.605521,61.562266,112.581821,65.673575,"C",215.023468,77.61303,106.101996,99.946828,154.170891,110.079227,"C",194.253521,118.528208,220.303958,139.485769,221.264111,148.807606,"C",225.744829,173.5587,221.584164,203.452887,215.504465,208.982188,"C",192.087446,211.220395,210.386633,169.735954,164.564205,180.122131,"C",118.741776,190.508308,77.805882,177.703234,48.737275,183.577495,"C",27.613015,187.846342,11.511918,200.870667,6.188478,212.633157,"C",5.666856,213.785715,-4.726742,245.788071,13.550928,245.572105,"C",70.442546,244.899884,83.000196,262.290177,63.648643,269.017917,"C",41.766315,276.625503,21.829415,270.847863,8.196418,291.955522,"C",12.736449,310.247126,3.418305,328.532177,19.574746,328.255586,"C",75.544917,327.297404,88.223607,348.455366,72.372482,348.344037,"C",42.190778,348.132057,3.078232,350.277843,9.581115,373.203171,"C",12.300593,389.244044,13.037193,407.797692,14.220237,408.250177,"C",45.751751,420.3102,108.356735,388.765108,113.134711,412.416096,"C",120.777116,439.113959,22.002552,441.285992,20.897576,442.660005,"C",8.270067,452.257511,25.117285,468.499365,26.902458,469.186472,"C",32.302037,484.647552,19.380975,485.02924,19.380975,485.02924,"C",19.380975,485.02924,11.020284,480.830722,11.020284,480.830722,"C",11.020284,480.830722,5.699844,476.632204,5.699844,476.632204,"C",5.699844,476.632204,4.559749,470.143575,4.482934,469.186472,"C",3.870904,461.560671,12.724577,455.288517,4.551578,445.817131,"C",-7.941626,431.33922,-51.534463,439.582324,-43.173371,423.0419,"C",-31.911,400.761988,-6.084096,411.626579,-0.504655,408.250176,"C",5.600112,404.555871,5.026996,395.369529,-6.528473,372.622333,"C",-14.478783,356.971972,-55.784517,359.603649,-58.33061,348.344042,"C",-53.242421,324.708805,-14.941703,341.417297,-9.205728,329.600033,"C",-3.713487,318.28491,-1.867178,307.002409,-6.528474,292.627745,"C",-5.271089,278.736374,-42.91761,276.61215,-70.891484,270.280768,"C",-98.382213,264.058738,-86.176745,244.899882,-13.221605,246.916553,"C",4.784537,247.41429,-16.023027,213.593168,-15.898859,213.30538,"C",-8.296623,195.685469,-50.797966,195.122625,-55.033191,187.891439,"C",-64.569591,171.609071,-84.704072,176.855161,-114.108511,172.05962,"C",-143.51295,167.264079,-190.47352,171.85153,-198.910509,186.765192,"C",-196.223216,238.270586,-211.229848,222.636423,-212.458921,221.402005,"C",-216.937732,215.104409,-232.949492,167.872384,-214.138477,155.727,"C",-170.693974,134.585044,-123.522684,106.390015,-151.952951,90.282696,"C",-196.440129,58.729904,-36.539048,57.450956,-9.054029,55.688957,"Z"]},{"t":2000,"v":["M",-9.054029,55.688957,"C",18.43099,53.926958,88.605521,61.562266,112.581821,65.673575,"C",215.023468,77.61303,106.101996,99.946828,154.170891,110.079227,"C",194.253521,118.528208,220.303958,139.485769,221.264111,148.807606,"C",225.744829,173.5587,221.584164,203.452887,215.504465,208.982188,"C",192.087446,211.220395,210.386633,169.735954,164.564205,180.122131,"C",118.741776,190.508308,77.805882,177.703234,48.737275,183.577495,"C",27.613015,187.846342,11.511918,200.870667,6.188478,212.633157,"C",5.666856,213.785715,-4.726742,245.788071,13.550928,245.572105,"C",70.442546,244.899884,83.000196,262.290177,63.648643,269.017917,"C",41.766315,276.625503,21.829415,270.847863,8.196418,291.955522,"C",12.736449,310.247126,3.418305,328.532177,19.574746,328.255586,"C",75.544917,327.297404,88.223607,348.455366,72.372482,348.344037,"C",42.190778,348.132057,3.078232,350.277843,9.581115,373.203171,"C",12.300593,389.244044,13.037193,407.797692,14.220237,408.250177,"C",45.751751,420.3102,108.356735,388.765108,113.134711,412.416096,"C",120.777116,439.113959,22.002552,441.285992,20.897576,442.660005,"C",8.270067,452.257511,25.117285,468.499365,26.902458,469.186472,"C",57.474509,498.86796,157.343235,431.31699,163.457644,484.538967,"C",152.247889,501.938459,14.305691,506.781798,-5.707746,507.055955,"C",-10.709756,506.666886,-79.037585,522.306348,-83.156955,487.609464,"C",-84.500892,476.289668,3.04237,483.636744,4.482934,469.186472,"C",5.241841,461.573882,12.724577,455.288517,4.551578,445.817131,"C",-7.941626,431.33922,-51.534463,439.582324,-43.173371,423.0419,"C",-31.911,400.761988,-6.084096,411.626579,-0.504655,408.250176,"C",5.600112,404.555871,5.026996,395.369529,-6.528473,372.622333,"C",-14.478783,356.971972,-55.784517,359.603649,-58.33061,348.344042,"C",-53.242421,324.708805,-14.941703,341.417297,-9.205728,329.600033,"C",-3.713487,318.28491,-1.867178,307.002409,-6.528474,292.627745,"C",-5.271089,278.736374,-42.91761,276.61215,-70.891484,270.280768,"C",-98.382213,264.058738,-86.176745,244.899882,-13.221605,246.916553,"C",4.784537,247.41429,-16.023027,213.593168,-15.898859,213.30538,"C",-8.296623,195.685469,-50.797966,195.122625,-55.033191,187.891439,"C",-64.569591,171.609071,-84.704072,176.855161,-114.108511,172.05962,"C",-143.51295,167.264079,-190.47352,171.85153,-198.910509,186.765192,"C",-196.223216,238.270586,-211.229848,222.636423,-212.458921,221.402005,"C",-216.937732,215.104409,-232.949492,167.872384,-214.138477,155.727,"C",-170.693974,134.585044,-123.522684,106.390015,-151.952951,90.282696,"C",-196.440129,58.729904,-36.539048,57.450956,-9.054029,55.688957,"Z"]}],"opacity":[{"t":200,"v":0},{"t":700,"v":0},{"t":800,"v":1}]},"erw24dShmaX41":{"d":[{"t":200,"v":["M",-14.126969,21.866735,"C",-13.603816,12.188396,-6.73882,-2.83692,-15.643896,-12.307589,"C",-28.728143,-26.222863,-1.805913,-64.113003,-22.38113,-85.311712,"C",-33.863079,-97.141599,-14.668062,-97.718451,-11.169269,-109.243888,"C",-6.909626,-123.275653,-10.824146,-126.589356,-5.531615,-136.136695,"C",-0.239083,-145.684034,6.114475,-145.19724,6.621004,-133.548909,"C",6.945048,-126.097082,7.005351,-98.193218,4.365899,-93.207586,"C",-2.399416,-80.428657,-10.047594,-50.060509,4.94508,-29.914103,"C",19.937754,-9.767697,10.534466,11.225184,2.437691,27.784623,"C",-16.294162,66.094812,9.296195,94.612777,2.996584,79.651202,"C",9.995464,96.273543,8.154725,117.096527,3.755516,124.865475,"C",2.635053,126.844197,1.348621,127.976102,0,127.976102,"C",-7.611554,127.976102,-20.504972,118.063852,-9.92145,105.128436,"C",-7.378289,102.020129,-7.678081,89.801555,-8.902195,75.597145,"C",-10.787036,53.725765,-14.863316,27.146248,-14.126969,21.866735,"Z"]},{"t":700,"v":["M",-14.126969,21.866735,"C",-13.603816,12.188396,-6.73882,-2.83692,-15.643896,-12.307589,"C",-28.728143,-26.222863,-1.805913,-64.113003,-22.38113,-85.311712,"C",-33.863079,-97.141599,-14.668062,-97.718451,-11.169269,-109.243888,"C",-6.909626,-123.275653,-10.824146,-126.589356,-5.531615,-136.136695,"C",-0.239083,-145.684034,6.114475,-145.19724,6.621004,-133.548909,"C",6.945048,-126.097082,7.005351,-98.193218,4.365899,-93.207586,"C",-2.399416,-80.428657,-10.047594,-50.060509,4.94508,-29.914103,"C",19.937754,-9.767697,12.384478,30.855161,4.287703,47.4146,"C",-10.8613,78.397183,-8.378012,85.585986,7.823377,95.395561,"C",24.024766,105.205136,39.464478,119.455895,32.76191,126.333773,"C",29.225652,129.962523,19.619296,132.479762,0.950693,133.639543,"C",-38.242219,133.452979,-8.708222,123.378962,-9.636966,113.864608,"C",-10.058175,109.549608,-11.155081,93.806415,-12.182053,76.478023,"C",-13.566766,53.113367,-14.824336,26.866766,-14.126969,21.866735,"Z"]},{"t":1500,"v":["M",-10.800157,116.400453,"C",-10.800157,116.400453,-6.443183,114.479318,-6.443183,114.479318,"C",-6.443183,114.479318,-6.390051,114.372584,-6.390051,114.372584,"C",-6.390051,114.372584,-6.602584,114.31922,-6.602584,114.31922,"C",-6.602584,114.31922,-6.602585,114.31922,-6.602585,114.31922,"C",-6.602585,114.31922,10.453374,113.678841,10.453374,113.678841,"C",10.453374,113.678841,10.665906,113.678841,10.665906,113.678841,"C",10.665906,113.678841,10.825312,113.732206,10.825312,113.732206,"C",10.825312,113.732206,10.719053,113.678845,10.719053,113.678845,"C",10.719053,113.678845,33.571797,116.290993,33.571797,116.290993,"C",33.571797,116.290993,39.464478,119.455895,32.76191,126.333773,"C",29.225652,129.962523,19.619296,132.479762,0.950693,133.639543,"C",-38.242219,133.452979,-13.935048,120.189347,-13.935048,120.189347,"C",-13.935048,120.189347,-12.394167,118.374951,-12.394167,118.374951,"C",-12.394167,118.374951,-10.800157,116.400453,-10.800157,116.400453,"Z"]}],"transform":{"data":{"t":{"x":5.49432,"y":-128.611894}},"keys":{"o":[{"t":200,"v":{"x":339.853669,"y":-69.31574,"type":"corner"}},{"t":700,"v":{"x":346.1444,"y":183.407727,"type":"corner"}}]}},"opacity":[{"t":1400,"v":1},{"t":1500,"v":0}]},"erw24dShmaX43":{"d":[{"t":1600,"v":["M",327.278451,42.483717,"C",319.580935,41.030532,315.105449,44.521372,306.990095,48.596689,"C",298.874741,52.672006,299.735619,56.055786,296.169647,62.181062,"C",292.603675,68.306338,294.140811,71.010898,298.874759,74.406996,"C",303.608707,77.803094,302.932421,78.48231,313.076599,82.557624,"C",323.220777,86.632938,320.052516,77.294674,326.602169,81.199186,"C",333.151822,85.103697,327.954727,86.632935,337.422624,88.670592,"C",346.890521,90.708249,336.483454,81.933263,344.861686,81.199191,"C",353.239918,80.465119,350.503709,85.759032,358.387257,86.632936,"C",366.270805,87.50684,358.450465,82.362948,365.15004,80.519967,"C",371.849615,78.676986,375.566911,81.123854,383.409551,78.48231,"C",391.252191,75.840766,375.753904,77.364072,374.617935,69.652467,"C",373.481966,61.940862,394.906283,68.294031,385.438386,66.256379,"C",375.970489,64.218727,381.104842,60.061723,375.970491,54.03044,"C",370.83614,47.999157,351.62447,45.879815,345.537963,47.238251,"C",339.451456,48.596687,334.975967,43.936902,327.278451,42.483717,"Z"]},{"t":1700,"v":["M",304.284983,42.483719,"C",304.284983,42.483719,290.759412,49.275909,279.262683,49.955126,"C",267.765954,50.634343,251.535274,39.087622,244.096214,48.596686,"C",236.657154,58.10575,233.952041,72.36935,238.685987,83.916065,"C",243.419933,95.46278,278.586401,82.55763,288.054303,90.70825,"C",297.522205,98.85887,308.342645,95.462781,319.163103,98.858876,"C",329.983561,102.254971,328.631003,115.839346,347.566796,118.556222,"C",366.502589,121.273098,373.941652,99.538093,381.380717,100.217315,"C",388.819782,100.896537,408.483135,91.414105,417.899744,97.50044,"C",427.316352,103.586775,433.454141,110.405595,444.274598,103.613409,"C",455.095055,96.821223,455.095054,106.330285,462.534111,91.387472,"C",469.973168,76.444659,440.893219,77.12387,440.216933,70.331688,"C",439.540647,63.539506,428.720206,49.275907,419.92858,45.200593,"C",411.136954,41.125279,386.114666,52.671998,376.646767,42.483719,"C",367.178868,32.29544,354.329586,29.57856,344.185407,26.861685,"C",334.041228,24.14481,304.284983,42.483719,304.284983,42.483719,"Z"]},{"t":2000,"v":["M",290.341593,39.861589,"C",290.341593,39.861589,273.417466,24.250346,240.638309,29.315223,"C",167.833493,40.564671,214.736589,36.346131,217.536778,57.438841,"C",205.35887,108.61184,118.515738,112.166057,148.232209,127.044781,"C",155.704056,130.785856,235.737972,91.890238,265.484,114.898,"C",281.240991,133.372581,314.395136,113.254119,328.844136,122.123119,"C",349.845522,125.63858,323.243773,146.02819,342.145017,169.933261,"C",342.145021,170.63633,340.04489,159.386913,370.14687,135.481836,"C",401.648952,108.76442,410.43381,110.359822,435.251184,122.826222,"C",444.571184,128.228222,457.652665,130.560222,480.05414,122.826209,"C",508.756027,106.655128,540.958168,124.232393,553.558985,119.310772,"C",585.061072,110.170615,491.954936,85.562441,495.455162,84.156265,"C",442.279322,72.618801,506.655898,36.346134,475.853861,37.752309,"C",458.778861,29.213309,416.349927,60.954296,390.448212,19.471962,"C",374.347135,13.847248,361.746312,18.768875,348.445432,23.690509,"C",312.743075,57.438839,290.341593,39.861589,290.341593,39.861589,"Z"]}],"opacity":[{"t":1600,"v":0},{"t":1700,"v":0.65}]},"erw24dShmaX44":{"transform":{"data":{"s":{"x":1,"y":0.717413},"t":{"x":-348.086653,"y":-99.098045}},"keys":{"o":[{"t":800,"v":{"x":907.256889,"y":-200.639937,"type":"cusp","end":{"x":906.995154,"y":-69.797016}}},{"t":1600,"v":{"x":907.455093,"y":126.448222,"type":"cusp","start":{"x":907.437334,"y":126.351697}}}]}}},"erw24dShmaX45":{"d":[{"t":1600,"v":["M",290.951338,47.426446,"C",292.711338,72.81691,291.072061,72.868464,292.832062,94.053963,"C",304.373062,98.779963,338.979561,117.166963,350.934561,120.860963,"C",368.465561,114.898,396.456999,102.478963,408.984999,94.053963,"C",410.797061,78.787244,410.79706,62.058963,408.985,47.478,"L",408.764336,46.830446,"L",356.976337,24.82441,"L",290.951338,47.426446,"Z"]},{"t":2000,"v":["M",292.414782,78.146817,"C",292.414782,78.146817,289.669745,81.552458,286.436616,90.193457,"C",297.977616,94.919457,341.495514,135.053627,353.450514,138.747627,"C",370.981514,132.784664,407.64249,110.139785,420.17049,101.714785,"C",420.334835,97.600825,416.643441,88.547556,414.879919,83.609838,"L",409.65208,69.448836,"L",355.89581,53.943729,"L",292.414782,78.146817,"Z"]}]},"erw24dShmaX46":{"d":[{"t":1600,"v":["M",286.854,74.989,"L",288.766,26.512,"L",340.554,5.653,"L",406.579,27.271,"L",404.819,74.831,"L",345.836,101.638,"Z"]},{"t":2000,"v":["M",277.469504,83.314798,"L",288.184207,50.663519,"L",344.294316,33.964406,"L",406.694816,57.789338,"L",414.142584,70.14755,"L",346.246925,119.524726,"Z"]}]},"erw24dShmaX47":{"d":[{"t":1600,"v":["M",288.766,26.512,"L",343.925,52.148,"L",369.605,42.836]},{"t":2000,"v":["M",288.324922,51.440201,"L",348.076165,85.774162,"L",385.894648,69.51271]}]}},"s":"MDQA1ZDk1M2M3ZKThmWThjN2I4UZTgzODk4OEYKzYzU0NGM0YTDRhNGE0NjNjNQ2VFODNSOGM3HZjdkOGU4MzgJ5ODhDM2M1NDRRiNDYzYzgzONGU3ZjhjN2I4TZTgzODlNODgB4ZDNjNTQ0YjGQ2M2M4MDgzOODY4NjNjNTQ0UYjQ2M2M3YjgC2OGVOUDdmOGGM4ODdiOGU3ZHjNjNTQ4MDdiAODY4ZDdmNDYIzYzhkOGE3ZjAdmN2UzYzU0NQGI0NjNjODA4WYThkM2M1NDRWiNGE0YTk3"}],"options":"MDMAyMzg1MmM3ZPDdlNmI3YzdlUMmNDNDQyYzZKkNzY3MzZkNzSUyYzM2MmM2ZMDc2NzNMNmQ3MNTJjNDQyYzdWjNmY4MEw2ZjAdjN2Q2ZjJjORDdC"},'https://cdn.svgator.com/ply/','__SVGATOR_PLAYER__','2022-05-04',window,document,'script','http://www.w3.org/2000/svg','http://www.w3.org/1999/xlink')
]]></script>
</svg>
