<?xml version="1.0" standalone="no"?>
<!DOCTYPE svg PUBLIC "-//W3C//DTD SVG 20010904//EN"
 "http://www.w3.org/TR/2001/REC-SVG-20010904/DTD/svg10.dtd">
<svg version="1.0" xmlns="http://www.w3.org/2000/svg"
 width="512.000000pt" height="512.000000pt" viewBox="0 0 512.000000 512.000000"
 preserveAspectRatio="xMidYMid meet">

<g transform="translate(0.000000,512.000000) scale(0.100000,-0.100000)"
fill="#000000" stroke="none">
<path d="M2200 4815 c-165 -21 -316 -51 -465 -91 -557 -153 -973 -450 -1086
-776 -24 -69 -33 -83 -79 -120 -81 -64 -167 -174 -215 -273 -57 -118 -69 -177
-63 -311 4 -96 9 -120 41 -200 l37 -91 -25 -50 c-75 -156 -74 -376 2 -526 l25
-50 -26 -56 c-41 -92 -57 -168 -57 -271 0 -102 15 -173 55 -264 l25 -56 -24
-52 c-38 -83 -55 -165 -55 -260 0 -110 13 -174 57 -268 186 -406 807 -692
1718 -792 163 -18 827 -18 990 0 908 99 1528 384 1716 787 46 99 59 161 59
273 0 95 -17 177 -55 260 l-24 52 24 54 c45 102 57 171 53 296 -4 103 -8 124
-40 204 l-36 88 24 52 c74 162 73 374 -2 530 l-25 51 25 55 c54 120 71 274 45
402 -27 134 -152 324 -276 423 -40 31 -52 48 -57 76 -9 58 -90 208 -150 281
-244 295 -722 517 -1311 610 -173 27 -651 34 -825 13z m626 -276 c631 -61
1191 -317 1354 -619 30 -57 35 -74 35 -135 -1 -52 -6 -80 -22 -111 -107 -202
-540 -318 -1350 -363 -186 -10 -224 -23 -256 -84 -30 -59 -25 -124 26 -297
106 -359 120 -464 72 -568 -50 -110 -131 -167 -235 -167 -106 1 -189 56 -240
160 -21 43 -25 63 -24 145 1 85 7 117 63 310 91 313 93 422 10 483 -19 13 -60
23 -140 33 -63 7 -163 21 -224 30 -136 20 -176 12 -228 -46 -51 -55 -62 -103
-61 -255 1 -153 14 -237 94 -601 102 -466 109 -560 50 -680 -53 -109 -153
-172 -252 -161 -101 12 -229 116 -262 213 -28 83 -23 148 79 982 25 200 45
380 45 401 0 125 -71 218 -231 302 -141 73 -181 107 -209 170 -29 68 -24 142
16 225 37 77 181 223 289 293 262 170 637 293 1025 336 145 16 433 18 576 4z
m-2027 -946 c33 -65 110 -128 241 -201 148 -81 170 -106 170 -191 0 -31 -11
-146 -25 -255 -14 -110 -25 -205 -25 -213 0 -22 -25 -15 -124 32 -203 96 -361
228 -427 355 -31 60 -34 72 -34 155 0 82 3 97 33 157 28 58 146 198 166 198 3
0 14 -17 25 -37z m3617 -29 c38 -39 77 -92 96 -132 30 -60 33 -75 33 -157 0
-80 -3 -97 -30 -150 -160 -318 -763 -560 -1576 -630 l-76 -7 -6 61 c-8 71 -40
205 -103 419 -24 84 -44 161 -44 171 0 17 12 19 133 26 776 39 1210 147 1408
348 25 26 54 63 65 82 10 19 23 35 28 35 5 0 37 -30 72 -66z m-2416 -369 c203
-25 183 -16 175 -82 -4 -31 -34 -151 -66 -267 -33 -116 -62 -234 -65 -262 -10
-78 -8 -77 -115 -62 l-94 13 -17 69 c-57 225 -85 528 -56 592 14 30 -6 30 238
-1z m-1176 -515 c78 -45 235 -119 284 -134 12 -4 22 -15 22 -24 1 -51 -45
-412 -52 -412 -5 0 -41 16 -80 36 -188 95 -335 222 -390 340 -29 61 -33 79
-33 154 0 67 5 95 22 133 l23 49 61 -48 c34 -26 98 -68 143 -94z m3713 51 c71
-245 -152 -492 -598 -665 -475 -183 -1150 -260 -1799 -205 -166 15 -206 22
-202 39 6 25 -19 224 -42 338 l-23 114 56 -6 c134 -15 128 -12 162 -77 40 -74
122 -152 196 -187 52 -24 70 -27 163 -27 95 0 110 3 163 29 69 34 152 113 187
178 28 53 0 46 250 68 563 52 1120 231 1395 449 59 46 65 43 92 -48z m-3806
-629 c41 -29 133 -82 205 -118 l131 -65 12 -66 c18 -97 56 -168 131 -244 108
-109 255 -165 370 -140 105 23 217 102 277 197 16 24 35 44 45 44 9 0 76 -8
150 -17 172 -22 791 -25 973 -5 503 55 899 159 1205 318 75 38 138 79 251 162
16 12 20 9 41 -30 19 -36 23 -58 23 -133 0 -76 -4 -98 -26 -145 -142 -302
-662 -530 -1424 -626 -201 -25 -722 -31 -952 -10 -799 72 -1391 316 -1542 636
-22 47 -26 69 -26 145 0 75 4 97 23 133 21 39 25 42 41 30 10 -7 52 -37 92
-66z m57 -676 c305 -185 746 -313 1292 -373 217 -24 743 -24 960 0 455 50 829
144 1108 277 144 69 226 118 299 177 l54 44 22 -48 c17 -38 22 -66 22 -138 0
-79 -4 -97 -29 -149 -37 -76 -148 -193 -245 -257 -273 -183 -689 -306 -1256
-371 -147 -17 -763 -17 -910 0 -564 65 -979 186 -1249 366 -103 68 -214 184
-252 262 -25 52 -29 70 -29 149 0 72 5 100 22 138 l22 48 54 -44 c29 -24 81
-60 115 -81z"/>
<path d="M2195 4401 c-48 -20 -86 -78 -171 -265 -77 -168 -88 -198 -88 -246 1
-66 19 -104 73 -153 l41 -37 509 0 509 0 31 26 c55 46 85 109 84 178 0 56 -7
76 -90 246 -87 180 -123 233 -171 251 -29 11 -700 11 -727 0z m771 -348 l73
-213 -479 0 -479 0 69 203 c39 111 72 208 75 215 3 10 76 12 336 10 l332 -3
73 -212z"/>
</g>
</svg>
