<svg id="ePN7t3LHDwo1" xmlns="http://www.w3.org/2000/svg" xmlns:xlink="http://www.w3.org/1999/xlink" viewBox="0 0 671.145 514.984" shape-rendering="geometricPrecision" text-rendering="geometricPrecision"><g transform="matrix(.965589 0 0 0.804505-3.452772 45.656638)"><g transform="translate(18.564501 66.197698)"><path d="M666.581,405.244c0,58.087-148.198,105.176-331.009,105.176s-331.008-47.089-331.008-105.176c0-58.088,148.197-105.177,331.008-105.177s331.009,47.089,331.009,105.177Z" fill="#fff"/><path d="M666.581,405.244c0,58.087-148.198,105.176-331.009,105.176s-331.008-47.089-331.008-105.176c0-58.088,148.197-105.177,331.008-105.177s331.009,47.089,331.009,105.177Z" fill-opacity="0" stroke="#000" stroke-width="9.127" stroke-linecap="round" stroke-linejoin="round"/></g><g transform="translate(0-25.260494)"><g transform="translate(1.22345 96.722829)"><path d="M591.227,354.86c0,40.691-106.75,73.678-238.432,73.678-131.681,0-238.431-32.987-238.431-73.678c0-40.692,106.75-73.679,238.431-73.679c131.682,0,238.432,32.987,238.432,73.679Z" fill="#ffedba"/><g><g><path d="M114.247,353.747l.112,30.618c0,40.692,106.749,73.679,238.431,73.679s238.431-32.987,238.431-73.679v-29.505" fill="#ffedba"/><path d="M114.247,353.747l.112,30.618c0,40.692,106.749,73.679,238.431,73.679s238.431-32.987,238.431-73.679v-29.505" fill-opacity="0" stroke="#520" stroke-width="12.465" stroke-linecap="round" stroke-linejoin="round"/></g><path d="M352.795,281.181c-70.94.01-138.182,9.781-183.455,26.659-17.106,7.882-26.542,20.922-26.557,29.681-.075,40.784,102.955,68.895,211.409,68.895s207.423-30.609,207.423-71.394c.369-8.546-9.477-20.159-23.848-26.595-45.239-17.223-113.185-27.232-184.972-27.246Z" fill="#dca55c"/><path d="M591.227,354.86c0,40.691-106.75,73.678-238.432,73.678-131.681,0-238.431-32.987-238.431-73.678c0-40.692,106.75-73.679,238.431-73.679c131.682,0,238.432,32.987,238.432,73.679Z" fill-opacity="0" stroke="#520" stroke-width="12.465" stroke-linecap="round" stroke-linejoin="round"/></g></g><g transform="translate(-.557363 55.002473)"><path d="M605.383,276.661c0,40.692-106.749,73.679-238.431,73.679s-238.431-32.987-238.431-73.679c0-40.691,106.749-73.678,238.431-73.678s238.431,32.987,238.431,73.678Z" fill="#ffedba"/><g><g><path d="M128.404,275.548l.112,30.619c0,40.691,106.749,73.678,238.431,73.678s238.431-32.987,238.431-73.678v-29.506" fill="#ffedba"/><path d="M128.404,275.548l.112,30.619c0,40.691,106.749,73.678,238.431,73.678s238.431-32.987,238.431-73.678v-29.506" transform="translate(.096956 0)" fill-opacity="0" stroke="#520" stroke-width="12.465" stroke-linecap="round" stroke-linejoin="round"/></g><path d="M366.952,202.982c-70.941.01-138.183,9.782-183.455,26.659-17.106,7.882-26.542,20.923-26.557,29.681-.075,40.785,102.955,68.896,211.409,68.896c108.453,0,207.423-30.61,207.423-71.394.369-8.546-9.478-20.16-23.848-26.595-45.24-17.224-113.185-27.232-184.972-27.247Z" fill="#dca55c"/><path d="M605.383,276.661c0,40.692-106.749,73.679-238.431,73.679s-238.431-32.987-238.431-73.679c0-40.691,106.749-73.678,238.431-73.678s238.431,32.987,238.431,73.678Z" fill-opacity="0" stroke="#520" stroke-width="12.465" stroke-linecap="round" stroke-linejoin="round"/></g></g><g transform="translate(3.66626-15.540532)"><path d="M576.408,199.846c0,40.692-106.75,73.679-238.432,73.679-131.681,0-238.431-32.987-238.431-73.679c0-40.691,106.75-73.678,238.431-73.678c131.682,0,238.432,32.987,238.432,73.678Z" fill="#ffedba"/><g><g><path d="M99.428,198.733l.112,30.619c0,40.691,106.749,73.678,238.431,73.678s238.431-32.987,238.431-73.678v-29.506" fill="#ffedba"/><path d="M99.428,198.733l.112,30.619c0,40.691,106.749,73.678,238.431,73.678s238.431-32.987,238.431-73.678v-29.506" fill-opacity="0" stroke="#520" stroke-width="12.465" stroke-linecap="round" stroke-linejoin="round"/></g><path d="M337.976,126.167c-70.941.01-138.182,9.782-183.455,26.659-17.106,7.882-26.542,20.923-26.557,29.681-.075,40.785,102.955,68.896,211.409,68.896s207.423-30.61,207.423-71.394c.369-8.546-9.478-20.16-23.848-26.595-45.239-17.224-113.185-27.232-184.972-27.247Z" fill="#dca55c"/><path d="M576.408,199.846c0,40.692-106.75,73.679-238.432,73.679-131.681,0-238.431-32.987-238.431-73.679c0-40.691,106.75-73.678,238.431-73.678c131.682,0,238.432,32.987,238.432,73.678Z" fill-opacity="0" stroke="#520" stroke-width="12.465" stroke-linecap="round" stroke-linejoin="round"/></g></g><g transform="translate(-.13655-64.952587)"><path d="M592.587,117.638c0,40.692-106.75,73.679-238.432,73.679s-238.431-32.987-238.431-73.679c0-40.691,106.749-73.678,238.431-73.678s238.432,32.987,238.432,73.678Z" fill="#ffedba"/><g><g><path d="M115.607,116.525l.112,30.619c0,40.691,106.749,73.678,238.431,73.678s238.431-32.987,238.431-73.678v-29.506" fill="#ffedba"/><path d="M115.607,116.525l.112,30.619c0,40.691,106.749,73.678,238.431,73.678s238.431-32.987,238.431-73.678v-29.506" fill-opacity="0" stroke="#520" stroke-width="12.465" stroke-linecap="round" stroke-linejoin="round"/></g><path d="M354.155,43.959c-70.941.01-138.182,9.782-183.455,26.659-17.106,7.882-26.542,20.923-26.557,29.681-.075,40.785,102.955,68.896,211.409,68.896s207.423-30.61,207.423-71.394c.369-8.546-9.478-20.16-23.848-26.595-45.239-17.224-113.185-27.232-184.972-27.247Z" fill="#dca55c"/><path d="M592.587,117.638c0,40.692-106.75,73.679-238.432,73.679s-238.431-32.987-238.431-73.679c0-40.691,106.749-73.678,238.431-73.678s238.432,32.987,238.432,73.678Z" transform="translate(-.401275 0)" fill-opacity="0" stroke="#520" stroke-width="12.465" stroke-linecap="round" stroke-linejoin="round"/></g></g></g><g transform="translate(.000001 0)"><path d="M5.291179,99.804274c-.245624.476759,29.581679,17.734055,20.867695,24.87374c1.175689-1.216831.532818-2.880357.591472-4.653543-.020734.626796.049524,1.093875-.166919,1.676444-1.900177,5.114418-9.319621,8.520336-18.669444,10.042948c8.518389-1.387117,9.807555-3.192628,9.807553-1.116611-.000003,3.126921.00001,6.014288,0,2.595026-.000003-1.038005-.963398-2.907869-9.890001-1.465038c1.607076-.259766,3.205943-.575008,4.761818-.94489-4.435304,1.054415-9.21997,1.664809-13.548256,1.811779.27486-.009333.55156-.020535.829895-.033601c5.317924-.249636,11.232378-1.179673,16.304175-2.755461-5.555013,1.72592-12.120901,2.677183-17.806681,2.808256.236168-.005444.473854-.012303.712923-.020574c5.604868-.193918,11.96986-1.163814,17.348713-2.86768-4.576368,1.449662-9.866575,2.368022-14.795137,2.729209-.229943.016852-.459098.03249-.687357.046913c6.568178-.415029,13.878595-1.836407,19.328992-4.201684-5.096083,2.211518-11.818216,3.597867-18.039362,4.108003-7.718055.632881-14.665006-.082846-16.779263-2.244576c1.411013,1.44273,4.976088,2.240675,9.375861,2.446882-2.044961-.095843-3.909602-.319517-5.461453-.676349c2.444906.562186,5.666267.793947,9.146758.717063-.105596.002333-.210955.004382-.31606.006145-2.232436.037463-4.350746-.053519-6.21649-.278774c1.548753.186983,3.27154.281443,5.089177.28671-.498873-.001445-.990601-.00961-1.473547-.024562-2.530325-.07834-4.819573-.343009-6.63228-.803911c1.509789.383882,3.350112.631557,5.38418.747343-.354271-.020167-.702665-.044334-1.044458-.072524-2.170624-.179031-4.075068-.52034-5.528221-1.029767.21054.073808.430554.144087.659478.210855-1.246496-.363556-2.22884-.831279-2.856516-1.406806-.391473-.358946-.644883-.759825-.740129-1.203115.022165.10316.052895.204023.091938.302595-.320518-.809224-.080842-1.772838.859147-2.894205-.660166.78755-1.119632,1.162576-1.142767,1.053718.11008.517966,10.098818-9.919352,4.582497-23.624332c0,0,16.052069-4.145626,16.052069-4.145626Z" transform="translate(352.863732 49.872122)" opacity="0" fill="#da7a2f" stroke="#7c2a1b" stroke-width="6" stroke-linecap="round" stroke-linejoin="round"/><path d="M-14.126969,21.866735c.523153-9.678339,7.388149-24.703655-1.516927-34.174324-13.084247-13.915274,13.837983-51.805414-6.737234-73.004123-11.481949-11.829887,7.713068-12.406739,11.211861-23.932176c4.259643-14.031765.345123-17.345468,5.637654-26.892807s11.64609-9.060545,12.152619,2.587786c.324044,7.451827.384347,35.355691-2.255105,40.341323-6.765315,12.778929-14.413493,43.147077.579181,63.293483s5.589386,41.139287-2.507389,57.698726c-18.731853,38.310189,6.858504,66.828154.558893,51.866579c6.99888,16.622341,5.158141,37.445325.758932,45.214273C2.635053,126.844197,1.348621,127.976102,0,127.976102c-7.611554,0-20.504972-9.91225-9.92145-22.847666c2.543161-3.108307,2.243369-15.326881,1.019255-29.531291-1.884841-21.87138-5.961121-48.450897-5.224774-53.73041Z" transform="translate(345.347989-197.927634)" fill="#da7a2f" stroke="#7c2a1b" stroke-width="6" stroke-linecap="round" stroke-linejoin="round"/></g><g transform="translate(-553.967224 59.36211)"><path d="M327.278451,42.483717c-7.697516-1.453185-12.173002,2.037655-20.288356,6.112972s-7.254476,7.459097-10.820448,13.584373-2.028836,8.829836,2.705112,12.225934s4.057662,4.075314,14.20184,8.150628s6.975917-5.26295,13.52557-1.358438s1.352558,5.433749,10.820455,7.471406-.93917-6.737329,7.439062-7.471401s5.642023,4.559841,13.525571,5.433745.063208-4.269988,6.762783-6.112969s10.416871.603887,18.259511-2.037657-7.655647-1.118238-8.791616-8.829843s20.288348-1.358436,10.820451-3.396088-4.333544-6.194656-9.467895-12.225939-24.346021-8.150625-30.432528-6.792189-10.561996-3.301349-18.259512-4.754534Z" transform="translate(561.562267 32.194041)" opacity="0" fill="#fef6a8" stroke="#f7c84d" stroke-width="6"/><g transform="matrix(1 0 0 0.717413 559.170236-271.734163)"><path d="M290.951338,47.426446c1.76,25.390464.120723,25.442018,1.880724,46.627517c11.541,4.726,46.147499,23.113,58.102499,26.807c17.531-5.962963,45.522438-18.382,58.050438-26.807c1.812062-15.266719,1.812061-31.995.000001-46.575963l-.220664-.647554L356.976337,24.82441L290.951338,47.426446Z" transform="matrix(-1 0 0 1.000001 699.109598-19.223043)" fill="#fef6a8"/><path d="M286.854,74.989l1.912-48.477L340.554,5.653l66.025,21.618-1.76,47.56-58.983,26.807Z" fill="none" fill-opacity="0" stroke="#f9c600" stroke-width="6" stroke-linecap="round" stroke-linejoin="round"/><path d="M288.766,26.512l55.159,25.636l25.68-9.312" fill-opacity="0" stroke="#f9c600" stroke-width="6" stroke-linecap="round"/></g></g></g></svg>
